# Blender 3.5.1
# www.blender.org
mtllib Clock.mtl
o Cylinder
v 0.000000 -0.015000 -0.300000
v 0.000000 0.015000 -0.300000
v 0.058527 -0.015000 -0.294236
v 0.058527 0.015000 -0.294236
v 0.114805 -0.015000 -0.277164
v 0.114805 0.015000 -0.277164
v 0.166671 -0.015000 -0.249441
v 0.166671 0.015000 -0.249441
v 0.212132 -0.015000 -0.212132
v 0.212132 0.015000 -0.212132
v 0.249441 -0.015000 -0.166671
v 0.249441 0.015000 -0.166671
v 0.277164 -0.015000 -0.114805
v 0.277164 0.015000 -0.114805
v 0.294236 -0.015000 -0.058527
v 0.294236 0.015000 -0.058527
v 0.300000 -0.015000 0.000000
v 0.300000 0.015000 0.000000
v 0.294236 -0.015000 0.058527
v 0.294236 0.015000 0.058527
v 0.277164 -0.015000 0.114805
v 0.277164 0.015000 0.114805
v 0.249441 -0.015000 0.166671
v 0.249441 0.015000 0.166671
v 0.212132 -0.015000 0.212132
v 0.212132 0.015000 0.212132
v 0.166671 -0.015000 0.249441
v 0.166671 0.015000 0.249441
v 0.114805 -0.015000 0.277164
v 0.114805 0.015000 0.277164
v 0.058527 -0.015000 0.294236
v 0.058527 0.015000 0.294236
v 0.000000 -0.015000 0.300000
v 0.000000 0.015000 0.300000
v -0.058527 -0.015000 0.294236
v -0.058527 0.015000 0.294236
v -0.114805 -0.015000 0.277164
v -0.114805 0.015000 0.277164
v -0.166671 -0.015000 0.249441
v -0.166671 0.015000 0.249441
v -0.212132 -0.015000 0.212132
v -0.212132 0.015000 0.212132
v -0.249441 -0.015000 0.166671
v -0.249441 0.015000 0.166671
v -0.277164 -0.015000 0.114805
v -0.277164 0.015000 0.114805
v -0.294236 -0.015000 0.058527
v -0.294236 0.015000 0.058527
v -0.300000 -0.015000 0.000000
v -0.300000 0.015000 0.000000
v -0.294236 -0.015000 -0.058527
v -0.294236 0.015000 -0.058527
v -0.277164 -0.015000 -0.114805
v -0.277164 0.015000 -0.114805
v -0.249441 -0.015000 -0.166671
v -0.249441 0.015000 -0.166671
v -0.212132 -0.015000 -0.212132
v -0.212132 0.015000 -0.212132
v -0.166671 -0.015000 -0.249441
v -0.166671 0.015000 -0.249441
v -0.114805 -0.015000 -0.277164
v -0.114805 0.015000 -0.277164
v -0.058527 -0.015000 -0.294236
v -0.058527 0.015000 -0.294236
vn 0.0980 -0.0000 -0.9952
vn 0.2903 -0.0000 -0.9569
vn 0.4714 -0.0000 -0.8819
vn 0.6344 -0.0000 -0.7730
vn 0.7730 -0.0000 -0.6344
vn 0.8819 -0.0000 -0.4714
vn 0.9569 -0.0000 -0.2903
vn 0.9952 -0.0000 -0.0980
vn 0.9952 -0.0000 0.0980
vn 0.9569 -0.0000 0.2903
vn 0.8819 -0.0000 0.4714
vn 0.7730 -0.0000 0.6344
vn 0.6344 -0.0000 0.7730
vn 0.4714 -0.0000 0.8819
vn 0.2903 -0.0000 0.9569
vn 0.0980 -0.0000 0.9952
vn -0.0980 -0.0000 0.9952
vn -0.2903 -0.0000 0.9569
vn -0.4714 -0.0000 0.8819
vn -0.6344 -0.0000 0.7730
vn -0.7730 -0.0000 0.6344
vn -0.8819 -0.0000 0.4714
vn -0.9569 -0.0000 0.2903
vn -0.9952 -0.0000 0.0980
vn -0.9952 -0.0000 -0.0980
vn -0.9569 -0.0000 -0.2903
vn -0.8819 -0.0000 -0.4714
vn -0.7730 -0.0000 -0.6344
vn -0.6344 -0.0000 -0.7730
vn -0.4714 -0.0000 -0.8819
vn -0.0000 1.0000 -0.0000
vn -0.2903 -0.0000 -0.9569
vn -0.0980 -0.0000 -0.9952
vn -0.0000 -1.0000 -0.0000
vt 0.784234 0.196347
vt 0.784234 0.790334
vt 0.745426 0.416092
vt 0.936263 0.196347
vt 0.619492 0.795254
vt 0.936263 0.790334
vt 0.784234 0.214909
vt 0.745426 0.463019
vt 0.936263 0.214909
vt 0.656190 0.718488
vt 0.784234 0.233471
vt 0.750134 0.508606
vt 0.936263 0.233471
vt 0.681468 0.633190
vt 0.784234 0.252033
vt 0.759370 0.551101
vt 0.936263 0.252033
vt 0.694355 0.542639
vt 0.784234 0.270595
vt 0.772779 0.588872
vt 0.936263 0.270595
vt 0.694355 0.450313
vt 0.784234 0.289157
vt 0.789844 0.620467
vt 0.936263 0.289157
vt 0.681469 0.359762
vt 0.784234 0.307719
vt 0.809911 0.644671
vt 0.936263 0.307719
vt 0.656190 0.274465
vt 0.784234 0.326281
vt 0.832209 0.660555
vt 0.936263 0.326281
vt 0.619492 0.197699
vt 0.784234 0.344843
vt 0.855880 0.667509
vt 0.936263 0.344843
vt 0.572783 0.132415
vt 0.784234 0.363406
vt 0.880014 0.665264
vt 0.936263 0.363406
vt 0.517860 0.081122
vt 0.784234 0.381968
vt 0.903685 0.653907
vt 0.936263 0.381968
vt 0.456832 0.045790
vt 0.784234 0.400530
vt 0.925982 0.633875
vt 0.936263 0.400530
vt 0.392046 0.027778
vt 0.784234 0.419092
vt 0.946050 0.605938
vt 0.936263 0.419092
vt 0.325990 0.027778
vt 0.784234 0.437654
vt 0.963115 0.571168
vt 0.936263 0.437654
vt 0.261203 0.045790
vt 0.784234 0.456216
vt 0.976524 0.530903
vt 0.936263 0.456216
vt 0.200176 0.081122
vt 0.784234 0.474778
vt 0.985759 0.486689
vt 0.936263 0.474778
vt 0.145253 0.132415
vt 0.784234 0.493340
vt 0.990468 0.440227
vt 0.936263 0.493340
vt 0.098544 0.197699
vt 0.784234 0.511902
vt 0.990468 0.393300
vt 0.936263 0.511902
vt 0.061846 0.274465
vt 0.784234 0.530464
vt 0.985759 0.347713
vt 0.936263 0.530464
vt 0.036567 0.359762
vt 0.784234 0.549027
vt 0.976524 0.305218
vt 0.936263 0.549027
vt 0.023680 0.450314
vt 0.784234 0.567589
vt 0.963115 0.267447
vt 0.936263 0.567589
vt 0.023680 0.542639
vt 0.784234 0.586151
vt 0.946050 0.235852
vt 0.936263 0.586151
vt 0.036567 0.633190
vt 0.784234 0.604713
vt 0.925982 0.211647
vt 0.936263 0.604713
vt 0.061846 0.718488
vt 0.784234 0.623275
vt 0.903685 0.195763
vt 0.936263 0.623275
vt 0.098544 0.795254
vt 0.784234 0.641837
vt 0.880014 0.188810
vt 0.936263 0.641837
vt 0.145253 0.860538
vt 0.784234 0.660399
vt 0.855880 0.191055
vt 0.936263 0.660399
vt 0.200176 0.911831
vt 0.784234 0.678961
vt 0.832209 0.202411
vt 0.936263 0.678961
vt 0.261203 0.947162
vt 0.784234 0.697523
vt 0.809911 0.222443
vt 0.936263 0.697523
vt 0.325990 0.965174
vt 0.784234 0.716085
vt 0.789844 0.250381
vt 0.936263 0.716086
vt 0.392046 0.965174
vt 0.784234 0.734648
vt 0.772779 0.285150
vt 0.936263 0.734648
vt 0.456832 0.947162
vt 0.784234 0.753210
vt 0.759370 0.325416
vt 0.517860 0.911831
vt 0.936263 0.753210
vt 0.784234 0.771772
vt 0.750134 0.369629
vt 0.572783 0.860537
vt 0.936263 0.771772
s 0
usemtl Material
f 1/1/1 2/4/1 4/9/1 3/7/1
f 3/7/2 4/9/2 6/13/2 5/11/2
f 5/11/3 6/13/3 8/17/3 7/15/3
f 7/15/4 8/17/4 10/21/4 9/19/4
f 9/19/5 10/21/5 12/25/5 11/23/5
f 11/23/6 12/25/6 14/29/6 13/27/6
f 13/27/7 14/29/7 16/33/7 15/31/7
f 15/31/8 16/33/8 18/37/8 17/35/8
f 17/35/9 18/37/9 20/41/9 19/39/9
f 19/39/10 20/41/10 22/45/10 21/43/10
f 21/43/11 22/45/11 24/49/11 23/47/11
f 23/47/12 24/49/12 26/53/12 25/51/12
f 25/51/13 26/53/13 28/57/13 27/55/13
f 27/55/14 28/57/14 30/61/14 29/59/14
f 29/59/15 30/61/15 32/65/15 31/63/15
f 31/63/16 32/65/16 34/69/16 33/67/16
f 33/67/17 34/69/17 36/73/17 35/71/17
f 35/71/18 36/73/18 38/77/18 37/75/18
f 37/75/19 38/77/19 40/81/19 39/79/19
f 39/79/20 40/81/20 42/85/20 41/83/20
f 41/83/21 42/85/21 44/89/21 43/87/21
f 43/87/22 44/89/22 46/93/22 45/91/22
f 45/91/23 46/93/23 48/97/23 47/95/23
f 47/95/24 48/97/24 50/101/24 49/99/24
f 49/99/25 50/101/25 52/105/25 51/103/25
f 51/103/26 52/105/26 54/109/26 53/107/26
f 53/107/27 54/109/27 56/113/27 55/111/27
f 55/111/28 56/113/28 58/117/28 57/115/28
f 57/115/29 58/117/29 60/121/29 59/119/29
f 59/119/30 60/121/30 62/126/30 61/123/30
f 4/10/31 2/5/31 64/129/31 62/125/31 60/122/31 58/118/31 56/114/31 54/110/31 52/106/31 50/102/31 48/98/31 46/94/31 44/90/31 42/86/31 40/82/31 38/78/31 36/74/31 34/70/31 32/66/31 30/62/31 28/58/31 26/54/31 24/50/31 22/46/31 20/42/31 18/38/31 16/34/31 14/30/31 12/26/31 10/22/31 8/18/31 6/14/31
f 61/123/32 62/126/32 64/130/32 63/127/32
f 63/127/33 64/130/33 2/6/33 1/2/33
f 1/3/34 3/8/34 5/12/34 7/16/34 9/20/34 11/24/34 13/28/34 15/32/34 17/36/34 19/40/34 21/44/34 23/48/34 25/52/34 27/56/34 29/60/34 31/64/34 33/68/34 35/72/34 37/76/34 39/80/34 41/84/34 43/88/34 45/92/34 47/96/34 49/100/34 51/104/34 53/108/34 55/112/34 57/116/34 59/120/34 61/124/34 63/128/34
