# Blender 3.5.1
# www.blender.org
mtllib Computer.mtl
o Cube
v 0.300000 0.125000 -0.350000
v 0.300000 -0.125000 -0.350000
v 0.300000 0.125000 0.350000
v 0.300000 -0.125000 0.350000
v -0.300000 0.125000 -0.350000
v -0.300000 -0.125000 -0.350000
v -0.300000 0.125000 0.350000
v -0.300000 -0.125000 0.350000
vn -0.0000 1.0000 -0.0000
vn -0.0000 -0.0000 1.0000
vn -1.0000 -0.0000 -0.0000
vn -0.0000 -1.0000 -0.0000
vn 1.0000 -0.0000 -0.0000
vn -0.0000 -0.0000 -1.0000
vt 0.625000 0.500000
vt 0.375000 0.500000
vt 0.625000 0.750000
vt 0.375000 0.750000
vt 0.875000 0.500000
vt 0.625000 0.250000
vt 0.125000 0.500000
vt 0.375000 0.250000
vt 0.875000 0.750000
vt 0.625000 1.000000
vt 0.625000 0.000000
vt 0.375000 1.000000
vt 0.375000 0.000000
vt 0.125000 0.750000
s 0
usemtl Material
f 1/1/1 5/5/1 7/9/1 3/3/1
f 4/4/2 3/3/2 7/10/2 8/12/2
f 8/13/3 7/11/3 5/6/3 6/8/3
f 6/7/4 2/2/4 4/4/4 8/14/4
f 2/2/5 1/1/5 3/3/5 4/4/5
f 6/8/6 5/6/6 1/1/6 2/2/6
o Cube.001
v 0.165000 0.125000 0.250000
v 0.165000 0.575000 0.250000
v 0.165000 0.125000 -0.250000
v 0.165000 0.575000 -0.250000
v -0.219021 0.515137 -0.183486
v -0.219021 0.515137 0.183486
v -0.219021 0.184862 0.183486
v -0.219021 0.184862 -0.183486
v 0.235000 0.175959 0.193379
v 0.227073 0.125000 0.250000
v 0.227073 0.575000 0.250000
v 0.235000 0.524041 0.193379
v 0.235000 0.175959 -0.193379
v 0.227073 0.125000 -0.250000
v 0.235000 0.524041 -0.193379
v 0.227073 0.575000 -0.250000
v 0.200381 0.524041 -0.193379
v 0.200381 0.175959 -0.193379
v 0.200381 0.175959 0.193379
v 0.200381 0.524041 0.193379
vn -0.1540 0.9881 -0.0000
vn -1.0000 -0.0000 -0.0000
vn -0.0000 -0.0000 1.0000
vn -0.0000 1.0000 -0.0000
vn -0.0000 -0.0000 -1.0000
vn 0.9903 -0.0000 -0.1386
vn 0.9881 -0.1537 -0.0000
vn 0.9881 0.1537 -0.0000
vn 0.9903 -0.0000 0.1386
vn -0.0000 -1.0000 -0.0000
vn -0.1540 -0.9881 -0.0000
vn -0.1707 -0.0000 -0.9853
vn -0.1707 -0.0000 0.9853
vn 1.0000 -0.0000 -0.0000
vt 0.125000 0.750000
vt 0.375000 1.000000
vt 0.875000 0.750000
vt 0.625000 1.000000
vt 0.125000 0.500000
vt 0.375000 0.250000
vt 0.875000 0.500000
vt 0.625000 0.250000
vt 0.875000 0.500000
vt 0.625000 0.250000
vt 0.875000 0.750000
vt 0.625000 0.000000
vt 0.625000 1.000000
vt 0.375000 0.000000
vt 0.125000 0.750000
vt 0.375000 1.000000
vt 0.125000 0.500000
vt 0.375000 0.250000
vt 0.403311 0.721689
vt 0.375000 0.778311
vt 0.346689 0.750000
vt 0.653311 0.750000
vt 0.625000 0.778311
vt 0.596689 0.721689
vt 0.403311 0.528311
vt 0.375000 0.471689
vt 0.346689 0.500000
vt 0.596689 0.528311
vt 0.625000 0.471689
vt 0.653311 0.500000
vt 0.596689 0.528311
vt 0.403311 0.528311
vt 0.403311 0.721689
vt 0.596689 0.721689
s 0
f 10/17/7 12/21/7 13/23/7 14/25/7
f 15/28/8 14/26/8 13/24/8 16/32/8
f 18/34/9 19/37/9 10/18/9 9/16/9
f 24/44/10 12/21/10 10/17/10 19/36/10
f 21/39/9 23/42/9 25/45/9 26/46/9
f 11/20/11 12/22/11 24/43/11 22/40/11
f 23/42/12 21/39/12 22/40/12 24/43/12
f 18/35/13 22/41/13 21/39/13 17/33/13
f 24/44/14 19/36/14 20/38/14 23/42/14
f 19/37/15 18/34/15 17/33/15 20/38/15
f 11/19/16 22/41/16 18/35/16 9/15/16
f 11/19/17 9/15/17 15/29/17 16/31/17
f 12/22/18 11/20/18 16/32/18 13/24/18
f 9/16/19 10/18/19 14/27/19 15/30/19
f 26/46/20 25/45/20 28/48/20 27/47/20
f 17/33/10 21/39/10 26/46/10 27/47/10
f 20/38/11 17/33/11 27/47/11 28/48/11
f 23/42/16 20/38/16 28/48/16 25/45/16
o Cube.002
v 0.350106 -0.083990 0.300000
v 0.356379 -0.064777 0.293515
v 0.350106 -0.083990 -0.300000
v 0.356379 -0.064777 -0.293515
v 0.545736 -0.125573 0.300000
v 0.547779 -0.105460 0.293515
v 0.545736 -0.125573 -0.300000
v 0.547779 -0.105460 -0.293515
v 0.354264 -0.064427 0.300000
v 0.354264 -0.064427 -0.300000
v 0.549894 -0.106010 -0.300000
v 0.549894 -0.106010 0.300000
v 0.356691 -0.063310 0.293515
v 0.356691 -0.063310 -0.293515
v 0.548091 -0.103993 -0.293515
v 0.548091 -0.103993 0.293515
vn -0.9781 0.2079 -0.0000
vn -0.0000 -0.0000 -1.0000
vn 0.9781 -0.2079 -0.0000
vn -0.0000 -0.0000 1.0000
vn -0.2079 -0.9781 -0.0000
vn 0.1631 0.9866 -0.0000
vn 0.2079 0.9780 -0.0151
vn 0.2515 0.9679 -0.0000
vn 0.2079 0.9780 0.0151
vn 0.2079 0.9781 -0.0000
vt 0.375000 0.000000
vt 0.375000 1.000000
vt 0.125000 0.750000
vt 0.872298 0.747298
vt 0.375000 0.250000
vt 0.125000 0.500000
vt 0.872298 0.502702
vt 0.375000 0.750000
vt 0.627702 0.747298
vt 0.375000 0.500000
vt 0.627702 0.502702
vt 0.625000 0.000000
vt 0.625000 1.000000
vt 0.875000 0.750000
vt 0.625000 0.250000
vt 0.875000 0.500000
vt 0.625000 0.500000
vt 0.625000 0.750000
vt 0.872298 0.747298
vt 0.872298 0.502702
vt 0.627702 0.502702
vt 0.627702 0.747298
s 0
f 29/49/21 37/60/21 38/63/21 31/53/21
f 31/53/22 38/63/22 39/65/22 35/58/22
f 35/58/23 39/65/23 40/66/23 33/56/23
f 33/56/24 40/66/24 37/61/24 29/50/24
f 31/54/25 35/58/25 33/56/25 29/51/25
f 30/52/24 34/57/24 44/70/24 41/67/24
f 30/52/26 32/55/26 38/64/26 37/62/26
f 32/55/27 36/59/27 39/65/27 38/64/27
f 36/59/28 34/57/28 40/66/28 39/65/28
f 34/57/29 30/52/29 37/62/29 40/66/29
f 43/69/30 42/68/30 41/67/30 44/70/30
f 36/59/22 32/55/22 42/68/22 43/69/22
f 34/57/23 36/59/23 43/69/23 44/70/23
f 32/55/21 30/52/21 41/67/21 42/68/21
