# Blender 3.5.1
# www.blender.org
mtllib PaperTray1.mtl
o Cube
v 0.200000 0.000000 -0.200000
v 0.300000 -0.100000 -0.200000
v 0.200000 0.000000 0.200000
v 0.300000 -0.100000 0.200000
v -0.300000 0.000000 -0.200000
v -0.300000 -0.100000 -0.200000
v -0.290000 -0.090000 -0.189000
v -0.300000 0.000000 0.200000
v -0.300000 -0.100000 0.200000
v -0.290000 -0.090000 0.189000
v -0.290000 0.000000 0.189000
v -0.290000 0.000000 -0.189000
v 0.200000 0.000000 0.189000
v 0.200000 0.000000 -0.189000
v 0.290000 -0.090000 -0.189000
v 0.290000 -0.090000 0.189000
vn -0.0000 -0.0000 1.0000
vn -1.0000 -0.0000 -0.0000
vn -0.0000 -1.0000 -0.0000
vn 0.7071 0.7071 -0.0000
vn -0.0000 -0.0000 -1.0000
vn 1.0000 -0.0000 -0.0000
vn -0.0000 1.0000 -0.0000
vt 0.000225 0.000225
vt 0.735049 0.387445
vt 0.650539 0.333258
vt 0.333258 0.000225
vt 0.735049 0.000086
vt 0.650539 0.333708
vt 0.000086 0.387445
vt 0.650539 0.666741
vt 0.650539 0.000225
vt 0.000086 0.000086
vt 0.000225 0.333258
vt 0.735048 0.999914
vt 0.983573 0.333258
vt 0.333258 0.333258
vt 0.327708 0.999775
vt 0.650090 0.327708
vt 0.983573 0.333708
vt 0.000225 0.666292
vt 0.000086 0.999914
vt 0.983573 0.666741
vt 0.333258 0.666292
vt 0.983573 0.000225
vt 0.650090 0.661191
vt 0.650090 0.660742
vt 0.327708 0.666741
vt 0.333708 0.661191
vt 0.333708 0.660742
vt 0.020297 0.987665
vt 0.333708 0.327708
vt 0.714837 0.987665
vt 0.333708 0.988674
vt 0.020297 0.387445
vt 0.333708 0.000225
vt 0.714837 0.387445
vt 0.000225 0.999775
vt 0.650090 0.000225
vt 0.714837 0.038822
vt 0.650090 0.988674
vt 0.000225 0.666741
vt 0.020297 0.038822
s 0
usemtl Material
f 4/8/1 3/6/1 8/17/1 9/20/1
f 9/21/2 8/18/2 5/11/2 6/14/2
f 6/13/3 2/3/3 4/9/3 9/22/3
f 16/40/4 4/10/4 2/5/4 15/37/4
f 6/14/5 5/11/5 1/1/5 2/4/5
f 16/38/5 10/23/5 11/26/5 13/31/5
f 11/27/6 10/24/6 7/16/6 12/29/6
f 7/15/7 10/25/7 16/39/7 15/35/7
f 12/29/1 7/16/1 15/36/1 14/33/1
f 8/19/7 3/7/7 13/32/7 11/28/7
f 12/30/7 5/12/7 8/19/7 11/28/7
f 1/2/7 5/12/7 12/30/7 14/34/7
f 13/32/4 3/7/4 4/10/4 16/40/4
f 1/2/4 14/34/4 15/37/4 2/5/4
