# Blender 3.5.1
# www.blender.org
mtllib PaperTray2.mtl
o Cube
v 0.200000 0.000000 -0.200000
v 0.300000 -0.100000 -0.200000
v 0.200000 0.000000 0.200000
v 0.300000 -0.100000 0.200000
v -0.300000 0.000000 -0.200000
v -0.300000 -0.100000 -0.200000
v -0.290000 -0.090000 -0.189000
v -0.300000 0.000000 0.200000
v -0.300000 -0.100000 0.200000
v -0.290000 -0.090000 0.189000
v -0.290000 0.000000 0.189000
v -0.290000 0.000000 -0.189000
v 0.200000 0.000000 0.189000
v 0.200000 0.000000 -0.189000
v 0.290000 -0.090000 -0.189000
v 0.290000 -0.090000 0.189000
vn -0.0000 -0.0000 1.0000
vn -1.0000 -0.0000 -0.0000
vn -0.0000 -1.0000 -0.0000
vn 0.7071 0.7071 -0.0000
vn -0.0000 -0.0000 -1.0000
vn 1.0000 -0.0000 -0.0000
vn -0.0000 1.0000 -0.0000
vt 0.572015 0.338508
vt 0.842760 0.481179
vt 0.811623 0.461214
vt 0.694721 0.338508
vt 0.842760 0.338457
vt 0.811623 0.461380
vt 0.571963 0.481179
vt 0.811623 0.584086
vt 0.811623 0.338508
vt 0.571963 0.338457
vt 0.572015 0.461214
vt 0.842760 0.706844
vt 0.934329 0.461214
vt 0.694721 0.461214
vt 0.542717 0.849330
vt 0.811457 0.459169
vt 0.934329 0.461380
vt 0.572015 0.583921
vt 0.571963 0.706844
vt 0.934329 0.584086
vt 0.694721 0.583921
vt 0.934329 0.338508
vt 0.811457 0.582041
vt 0.811457 0.581875
vt 0.232614 0.846159
vt 0.694886 0.582041
vt 0.694886 0.581875
vt 0.579410 0.702330
vt 0.694886 0.459169
vt 0.835313 0.702330
vt 0.694886 0.702702
vt 0.579410 0.481179
vt 0.694886 0.338508
vt 0.835313 0.481179
vt 0.541808 0.146512
vt 0.811457 0.338508
vt 0.835313 0.352729
vt 0.811457 0.702702
vt 0.231706 0.143341
vt 0.579410 0.352729
s 0
usemtl Material
f 4/8/1 3/6/1 8/17/1 9/20/1
f 9/21/2 8/18/2 5/11/2 6/14/2
f 6/13/3 2/3/3 4/9/3 9/22/3
f 16/40/4 4/10/4 2/5/4 15/37/4
f 6/14/5 5/11/5 1/1/5 2/4/5
f 16/38/5 10/23/5 11/26/5 13/31/5
f 11/27/6 10/24/6 7/16/6 12/29/6
f 7/15/7 10/25/7 16/39/7 15/35/7
f 12/29/1 7/16/1 15/36/1 14/33/1
f 8/19/7 3/7/7 13/32/7 11/28/7
f 12/30/7 5/12/7 8/19/7 11/28/7
f 1/2/7 5/12/7 12/30/7 14/34/7
f 13/32/4 3/7/4 4/10/4 16/40/4
f 1/2/4 14/34/4 15/37/4 2/5/4
