# Blender 3.4.1
# www.blender.org
mtllib Sharpener.mtl
o Cube
v 0.149625 0.200000 -0.085500
v 0.175000 -0.050000 -0.100000
v 0.149625 0.200000 0.085500
v 0.175000 -0.050000 0.100000
v -0.149625 0.200000 -0.085500
v -0.175000 -0.050000 -0.100000
v -0.149625 0.200000 0.085500
v -0.175000 -0.050000 0.100000
v 0.175000 0.050000 0.100000
v -0.175000 0.050000 0.100000
v 0.175000 0.050000 -0.100000
v -0.175000 0.050000 -0.100000
vn -0.0000 1.0000 -0.0000
vn -0.0000 -0.0000 1.0000
vn -1.0000 -0.0000 -0.0000
vn -0.0000 -1.0000 -0.0000
vn 1.0000 -0.0000 -0.0000
vn -0.0000 -0.0000 -1.0000
vn -0.0000 0.0962 0.9954
vn 0.9860 0.1668 -0.0000
vn -0.9860 0.1668 -0.0000
vn -0.0000 0.0962 -0.9954
vt 0.463750 0.625255
vt 0.731875 0.625255
vt 0.768125 0.625255
vt 0.250000 0.625255
vt 0.750000 0.000000
vt 0.250000 0.625255
vt 0.231875 0.625255
vt 0.518125 0.625255
vt 0.250000 0.000000
vt 0.250000 0.875255
vt 0.500000 0.000000
vt 0.463750 0.839005
vt 0.268125 0.625255
vt 0.981875 0.625255
vt 0.250000 0.000000
vt 0.000000 0.625255
vt 1.000000 0.000000
vt 0.250000 0.839005
vt 0.018125 0.625255
vt 0.481875 0.625255
vt 0.000000 0.000000
vt 0.500000 0.000000
vt 0.000000 0.875255
vt 0.250000 0.249927
vt 0.500000 0.249927
vt 0.000000 0.249927
vt 0.500000 0.249927
vt 0.750000 0.249927
vt 0.250000 0.249927
vt 1.000000 0.249927
s 0
usemtl Material
f 1/1/1 5/12/1 7/18/1 3/6/1
f 4/9/2 9/24/2 10/26/2 8/21/2
f 8/22/3 10/27/3 12/29/3 6/15/3
f 6/16/4 2/4/4 4/10/4 8/23/4
f 2/5/5 11/28/5 9/25/5 4/11/5
f 6/17/6 12/30/6 11/28/6 2/5/6
f 3/7/7 7/19/7 10/26/7 9/24/7
f 1/2/8 3/8/8 9/25/8 11/28/8
f 7/20/9 5/13/9 12/29/9 10/27/9
f 5/14/10 1/3/10 11/28/10 12/30/10
