# Blender 3.5.1
# www.blender.org
mtllib Room.mtl
o Cube
v 8.932443 3.801711 -6.475097
v 10.574077 -3.801711 -7.665112
v 8.932443 3.801711 6.475097
v 10.574077 -3.801711 7.665112
v -8.932443 3.801711 -6.475097
v -10.574077 -3.801711 -7.665112
v -8.932443 3.801711 6.475097
v -10.574077 -3.801711 7.665112
v 10.574077 3.801711 7.665112
v -10.574077 3.801711 7.665112
v 10.574077 3.801711 -7.665112
v -10.574077 3.801711 -7.665112
v 8.932443 -3.418897 6.475097
v -8.932443 -3.418897 6.475097
v 8.932443 -3.418897 -6.475097
v -8.932443 -3.418897 -6.475097
vn 1.0000 -0.0000 -0.0000
vn -0.0000 -0.0000 1.0000
vn -1.0000 -0.0000 -0.0000
vn -0.0000 -1.0000 -0.0000
vn -0.0000 -0.0000 -1.0000
vn -0.0000 1.0000 -0.0000
vt 0.644406 0.519406
vt 0.375000 0.500000
vt 0.644406 0.730594
vt 0.375000 0.750000
vt 0.855594 0.519406
vt 0.125000 0.500000
vt 0.375000 0.250000
vt 0.855594 0.730594
vt 0.375000 1.000000
vt 0.375000 0.000000
vt 0.125000 0.750000
vt 0.625000 0.750000
vt 0.625000 1.000000
vt 0.625000 0.000000
vt 0.875000 0.750000
vt 0.625000 0.500000
vt 0.625000 0.250000
vt 0.875000 0.500000
vt 0.644406 0.730594
vt 0.855594 0.730594
vt 0.644406 0.519406
vt 0.855594 0.519406
s 0
usemtl Material
f 5/5/1 7/8/1 14/20/1 16/22/1
f 4/4/2 9/12/2 10/13/2 8/9/2
f 8/10/3 10/14/3 12/17/3 6/7/3
f 6/6/4 2/2/4 4/4/4 8/11/4
f 2/2/1 11/16/1 9/12/1 4/4/1
f 6/7/5 12/17/5 11/16/5 2/2/5
f 3/3/6 7/8/6 10/15/6 9/12/6
f 1/1/6 3/3/6 9/12/6 11/16/6
f 7/8/6 5/5/6 12/18/6 10/15/6
f 5/5/6 1/1/6 11/16/6 12/18/6
f 15/21/6 16/22/6 14/20/6 13/19/6
f 7/8/5 3/3/5 13/19/5 14/20/5
f 1/1/2 5/5/2 16/22/2 15/21/2
f 3/3/3 1/1/3 15/21/3 13/19/3
